<mxfile host="Electron" modified="2024-01-14T15:41:34.670Z" agent="Mozilla/5.0 (X11; Linux x86_64) AppleWebKit/537.36 (KHTML, like Gecko) draw.io/21.6.1 Chrome/112.0.5615.204 Electron/24.6.1 Safari/537.36" etag="w1yT15fjX-2vO5fgNXkg" version="21.6.1" type="device">
  <diagram name="Page-1" id="euZe_N_bJRSOochfPd5F">
    <mxGraphModel dx="2603" dy="1070" grid="1" gridSize="10" guides="1" tooltips="1" connect="1" arrows="1" fold="1" page="0" pageScale="1" pageWidth="850" pageHeight="1100" math="0" shadow="0">
      <root>
        <mxCell id="0" />
        <mxCell id="1" parent="0" />
        <mxCell id="LHmZlDsPwRPgauXXhh8H-3" value="" style="rounded=0;whiteSpace=wrap;html=1;strokeWidth=2;glass=0;shadow=0;" vertex="1" parent="1">
          <mxGeometry x="-639" y="320" width="1200" height="680" as="geometry" />
        </mxCell>
        <mxCell id="LHmZlDsPwRPgauXXhh8H-1" value="&lt;b&gt;&lt;font style=&quot;font-size: 72px;&quot;&gt;Elasticsearch Basics&lt;/font&gt;&lt;/b&gt;" style="text;html=1;strokeColor=none;fillColor=none;align=center;verticalAlign=middle;whiteSpace=wrap;rounded=0;" vertex="1" parent="1">
          <mxGeometry x="-438" y="40" width="798" height="80" as="geometry" />
        </mxCell>
        <mxCell id="LHmZlDsPwRPgauXXhh8H-2" value="&lt;b&gt;&lt;font style=&quot;font-size: 36px;&quot;&gt;Shards &amp;amp; Replications&lt;/font&gt;&lt;/b&gt;" style="text;html=1;strokeColor=none;fillColor=none;align=center;verticalAlign=middle;whiteSpace=wrap;rounded=0;" vertex="1" parent="1">
          <mxGeometry x="-639" y="240" width="400" height="80" as="geometry" />
        </mxCell>
        <mxCell id="LHmZlDsPwRPgauXXhh8H-4" value="&lt;font style=&quot;font-size: 16px;&quot;&gt;Cluster: &lt;b&gt;codeflix&lt;/b&gt;&lt;/font&gt;" style="text;html=1;strokeColor=none;fillColor=none;align=center;verticalAlign=middle;whiteSpace=wrap;rounded=0;" vertex="1" parent="1">
          <mxGeometry x="-610" y="350" width="130" height="30" as="geometry" />
        </mxCell>
        <mxCell id="LHmZlDsPwRPgauXXhh8H-5" value="" style="rounded=0;whiteSpace=wrap;html=1;strokeWidth=2;strokeColor=#67AB9F;" vertex="1" parent="1">
          <mxGeometry x="-558" y="470" width="308" height="480" as="geometry" />
        </mxCell>
        <mxCell id="LHmZlDsPwRPgauXXhh8H-6" value="" style="rounded=0;whiteSpace=wrap;html=1;strokeWidth=2;strokeColor=#67AB9F;" vertex="1" parent="1">
          <mxGeometry x="-193" y="470" width="308" height="480" as="geometry" />
        </mxCell>
        <mxCell id="LHmZlDsPwRPgauXXhh8H-7" value="" style="rounded=0;whiteSpace=wrap;html=1;strokeWidth=2;strokeColor=#67AB9F;" vertex="1" parent="1">
          <mxGeometry x="180" y="470" width="308" height="480" as="geometry" />
        </mxCell>
        <mxCell id="LHmZlDsPwRPgauXXhh8H-8" value="&lt;font style=&quot;font-size: 16px;&quot;&gt;categories&lt;br&gt;shard 1&lt;/font&gt;" style="rounded=0;whiteSpace=wrap;html=1;fillColor=#fff2cc;strokeColor=#d6b656;" vertex="1" parent="1">
          <mxGeometry x="-540" y="550" width="120" height="80" as="geometry" />
        </mxCell>
        <mxCell id="LHmZlDsPwRPgauXXhh8H-9" value="&lt;font style=&quot;font-size: 16px;&quot;&gt;videos&lt;br&gt;shard 1&lt;/font&gt;" style="rounded=0;whiteSpace=wrap;html=1;fillColor=#fff2cc;strokeColor=#d6b656;" vertex="1" parent="1">
          <mxGeometry x="-390" y="550" width="120" height="80" as="geometry" />
        </mxCell>
        <mxCell id="LHmZlDsPwRPgauXXhh8H-10" value="&lt;font style=&quot;font-size: 16px;&quot;&gt;genres&lt;br&gt;shard 1&lt;/font&gt;" style="rounded=0;whiteSpace=wrap;html=1;fillColor=#fff2cc;strokeColor=#d6b656;" vertex="1" parent="1">
          <mxGeometry x="-390" y="690" width="120" height="80" as="geometry" />
        </mxCell>
        <mxCell id="LHmZlDsPwRPgauXXhh8H-11" value="&lt;font style=&quot;font-size: 16px;&quot;&gt;cast members&lt;br&gt;shard 1&lt;/font&gt;" style="rounded=0;whiteSpace=wrap;html=1;fillColor=#fff2cc;strokeColor=#d6b656;" vertex="1" parent="1">
          <mxGeometry x="-540" y="690" width="120" height="80" as="geometry" />
        </mxCell>
        <mxCell id="LHmZlDsPwRPgauXXhh8H-12" value="&lt;font style=&quot;font-size: 16px;&quot;&gt;videos&lt;br&gt;replica 2&lt;/font&gt;" style="rounded=0;whiteSpace=wrap;html=1;fillColor=#d5e8d4;strokeColor=#82b366;" vertex="1" parent="1">
          <mxGeometry x="-390" y="820" width="120" height="80" as="geometry" />
        </mxCell>
        <mxCell id="LHmZlDsPwRPgauXXhh8H-13" value="&lt;font style=&quot;font-size: 16px;&quot;&gt;cast members&lt;br&gt;replica 2&lt;/font&gt;" style="rounded=0;whiteSpace=wrap;html=1;fillColor=#d5e8d4;strokeColor=#82b366;" vertex="1" parent="1">
          <mxGeometry x="-540" y="820" width="120" height="80" as="geometry" />
        </mxCell>
        <mxCell id="LHmZlDsPwRPgauXXhh8H-16" value="&lt;font style=&quot;font-size: 16px;&quot;&gt;Node: &lt;b&gt;es1&lt;/b&gt;&lt;/font&gt;" style="text;html=1;strokeColor=none;fillColor=none;align=center;verticalAlign=middle;whiteSpace=wrap;rounded=0;" vertex="1" parent="1">
          <mxGeometry x="-545" y="490" width="130" height="30" as="geometry" />
        </mxCell>
        <mxCell id="LHmZlDsPwRPgauXXhh8H-17" value="&lt;font style=&quot;font-size: 16px;&quot;&gt;Node: &lt;b&gt;es2&lt;/b&gt;&lt;/font&gt;" style="text;html=1;strokeColor=none;fillColor=none;align=center;verticalAlign=middle;whiteSpace=wrap;rounded=0;" vertex="1" parent="1">
          <mxGeometry x="190" y="490" width="130" height="30" as="geometry" />
        </mxCell>
        <mxCell id="LHmZlDsPwRPgauXXhh8H-18" value="&lt;font style=&quot;font-size: 16px;&quot;&gt;Node: &lt;b&gt;es2&lt;/b&gt;&lt;/font&gt;" style="text;html=1;strokeColor=none;fillColor=none;align=center;verticalAlign=middle;whiteSpace=wrap;rounded=0;" vertex="1" parent="1">
          <mxGeometry x="-180" y="490" width="130" height="30" as="geometry" />
        </mxCell>
        <mxCell id="LHmZlDsPwRPgauXXhh8H-19" value="&lt;font style=&quot;font-size: 16px;&quot;&gt;videos&lt;br&gt;shard 2&lt;/font&gt;" style="rounded=0;whiteSpace=wrap;html=1;fillColor=#fff2cc;strokeColor=#d6b656;" vertex="1" parent="1">
          <mxGeometry x="-175" y="550" width="120" height="80" as="geometry" />
        </mxCell>
        <mxCell id="LHmZlDsPwRPgauXXhh8H-20" value="&lt;font style=&quot;font-size: 16px;&quot;&gt;cast members&lt;br&gt;shard 2&lt;/font&gt;" style="rounded=0;whiteSpace=wrap;html=1;fillColor=#fff2cc;strokeColor=#d6b656;" vertex="1" parent="1">
          <mxGeometry x="-30" y="550" width="120" height="80" as="geometry" />
        </mxCell>
        <mxCell id="LHmZlDsPwRPgauXXhh8H-21" value="&lt;font style=&quot;font-size: 16px;&quot;&gt;cast members&lt;br&gt;shard 3&lt;/font&gt;" style="rounded=0;whiteSpace=wrap;html=1;fillColor=#fff2cc;strokeColor=#d6b656;" vertex="1" parent="1">
          <mxGeometry x="350" y="620" width="120" height="80" as="geometry" />
        </mxCell>
        <mxCell id="LHmZlDsPwRPgauXXhh8H-22" value="&lt;font style=&quot;font-size: 16px;&quot;&gt;videos&lt;br&gt;shard 3&lt;/font&gt;" style="rounded=0;whiteSpace=wrap;html=1;fillColor=#fff2cc;strokeColor=#d6b656;" vertex="1" parent="1">
          <mxGeometry x="195" y="620" width="120" height="80" as="geometry" />
        </mxCell>
        <mxCell id="LHmZlDsPwRPgauXXhh8H-23" value="&lt;font style=&quot;font-size: 16px;&quot;&gt;cast members&lt;br&gt;replica 3&lt;/font&gt;" style="rounded=0;whiteSpace=wrap;html=1;fillColor=#d5e8d4;strokeColor=#82b366;" vertex="1" parent="1">
          <mxGeometry x="-175" y="820" width="120" height="80" as="geometry" />
        </mxCell>
        <mxCell id="LHmZlDsPwRPgauXXhh8H-24" value="&lt;font style=&quot;font-size: 16px;&quot;&gt;videos&lt;br&gt;replica 3&lt;/font&gt;" style="rounded=0;whiteSpace=wrap;html=1;fillColor=#d5e8d4;strokeColor=#82b366;" vertex="1" parent="1">
          <mxGeometry x="-30" y="820" width="120" height="80" as="geometry" />
        </mxCell>
        <mxCell id="LHmZlDsPwRPgauXXhh8H-25" value="&lt;font style=&quot;font-size: 16px;&quot;&gt;categories&lt;br&gt;replica 1&lt;/font&gt;" style="rounded=0;whiteSpace=wrap;html=1;fillColor=#d5e8d4;strokeColor=#82b366;" vertex="1" parent="1">
          <mxGeometry x="-175" y="690" width="120" height="80" as="geometry" />
        </mxCell>
        <mxCell id="LHmZlDsPwRPgauXXhh8H-26" value="&lt;font style=&quot;font-size: 16px;&quot;&gt;genres&lt;br&gt;replica 1&lt;/font&gt;" style="rounded=0;whiteSpace=wrap;html=1;fillColor=#d5e8d4;strokeColor=#82b366;" vertex="1" parent="1">
          <mxGeometry x="-30" y="690" width="120" height="80" as="geometry" />
        </mxCell>
        <mxCell id="LHmZlDsPwRPgauXXhh8H-27" value="&lt;font style=&quot;font-size: 16px;&quot;&gt;cast members&lt;br&gt;replica 1&lt;/font&gt;" style="rounded=0;whiteSpace=wrap;html=1;fillColor=#d5e8d4;strokeColor=#82b366;" vertex="1" parent="1">
          <mxGeometry x="195" y="750" width="120" height="80" as="geometry" />
        </mxCell>
        <mxCell id="LHmZlDsPwRPgauXXhh8H-28" value="&lt;font style=&quot;font-size: 16px;&quot;&gt;videos&lt;br&gt;replica 1&lt;/font&gt;" style="rounded=0;whiteSpace=wrap;html=1;fillColor=#d5e8d4;strokeColor=#82b366;" vertex="1" parent="1">
          <mxGeometry x="350" y="750" width="120" height="80" as="geometry" />
        </mxCell>
        <mxCell id="LHmZlDsPwRPgauXXhh8H-29" value="&lt;h1&gt;&lt;font style=&quot;font-size: 32px;&quot;&gt;Types&lt;/font&gt;&lt;/h1&gt;&lt;p&gt;&lt;br&gt;&lt;/p&gt;&lt;p&gt;&lt;font style=&quot;font-size: 18px;&quot;&gt;&lt;b&gt;Text: &lt;/b&gt;&lt;font color=&quot;#202020&quot;&gt;usado para campos textuais em que necessita tokenizar o conteúdo. É usado para campos de busca parcial ou completa (nomes, descrições, etc).&lt;/font&gt;&lt;/font&gt;&lt;/p&gt;&lt;p&gt;&lt;font style=&quot;font-size: 18px;&quot;&gt;&lt;br&gt;&lt;/font&gt;&lt;/p&gt;&lt;p&gt;&lt;font style=&quot;font-size: 18px;&quot;&gt;&lt;b&gt;Keyword:&lt;/b&gt;&amp;nbsp;&lt;font color=&quot;#202020&quot;&gt;usado para campos com semântica de palavra-chave. É usado para cmapos textuais que necessitam de ordenação, agregação e busca exata (tags, ids, etc).&lt;/font&gt;&lt;/font&gt;&lt;/p&gt;&lt;p&gt;&lt;font style=&quot;font-size: 18px;&quot;&gt;&lt;br&gt;&lt;/font&gt;&lt;/p&gt;&lt;p&gt;&lt;font style=&quot;font-size: 18px;&quot;&gt;&lt;b&gt;Numeric: &lt;/b&gt;&lt;font color=&quot;#202020&quot;&gt;usado para campos com valores numéricos. Possuí subtipos como integer, long, float e double.&lt;/font&gt;&lt;/font&gt;&lt;/p&gt;&lt;p&gt;&lt;font style=&quot;font-size: 18px;&quot;&gt;&lt;br&gt;&lt;/font&gt;&lt;/p&gt;&lt;p&gt;&lt;font style=&quot;font-size: 18px;&quot;&gt;&lt;b&gt;Date: &lt;/b&gt;&lt;font color=&quot;#202020&quot;&gt;usado para campos de datas e horários. Esse tipo suporta busca por intervalo de datas.&lt;/font&gt;&lt;/font&gt;&lt;/p&gt;&lt;p&gt;&lt;font style=&quot;font-size: 18px;&quot;&gt;&lt;br&gt;&lt;/font&gt;&lt;/p&gt;&lt;p&gt;&lt;font style=&quot;font-size: 18px;&quot;&gt;&lt;b&gt;Boolean: &lt;/b&gt;&lt;font color=&quot;#202020&quot;&gt;usado para representar verdadeiro ou falso.&lt;/font&gt;&lt;/font&gt;&lt;/p&gt;" style="text;html=1;strokeColor=none;fillColor=none;spacing=5;spacingTop=-20;whiteSpace=wrap;overflow=hidden;rounded=0;" vertex="1" parent="1">
          <mxGeometry x="-438" y="1080" width="340" height="640" as="geometry" />
        </mxCell>
        <mxCell id="LHmZlDsPwRPgauXXhh8H-30" value="&lt;h1&gt;&lt;span style=&quot;font-size: 32px;&quot;&gt;Indexes &amp;amp; Mapping Types&lt;/span&gt;&lt;/h1&gt;&lt;p&gt;&lt;br&gt;&lt;/p&gt;&lt;p&gt;&lt;/p&gt;&lt;ul&gt;&lt;li&gt;&lt;span style=&quot;font-size: 18px;&quot;&gt;&lt;font color=&quot;#202020&quot;&gt;A partir da versão 6 foi depreciado a funcionalidade de vários tipos de documentos por índice.&lt;/font&gt;&lt;/span&gt;&lt;/li&gt;&lt;/ul&gt;&lt;div&gt;&lt;br&gt;&lt;/div&gt;&lt;div&gt;&lt;ul&gt;&lt;li&gt;&lt;span style=&quot;font-size: 18px;&quot;&gt;&lt;font color=&quot;#202020&quot;&gt;Utilizaremos um index por tipo de documento (categories, genres, cast_members e videos).&lt;/font&gt;&lt;/span&gt;&lt;/li&gt;&lt;/ul&gt;&lt;div&gt;&lt;br&gt;&lt;/div&gt;&lt;/div&gt;&lt;div&gt;&lt;ul&gt;&lt;li&gt;&lt;span style=&quot;font-size: 18px;&quot;&gt;&lt;font color=&quot;#202020&quot;&gt;O Elasticsearch suport dynamic mappings e também configuração fixa, sendo &quot;strict&quot; ou não.&lt;/font&gt;&lt;/span&gt;&lt;/li&gt;&lt;/ul&gt;&lt;/div&gt;&lt;p&gt;&lt;/p&gt;" style="text;html=1;strokeColor=none;fillColor=none;spacing=5;spacingTop=-20;whiteSpace=wrap;overflow=hidden;rounded=0;" vertex="1" parent="1">
          <mxGeometry x="-40" y="1080" width="400" height="360" as="geometry" />
        </mxCell>
      </root>
    </mxGraphModel>
  </diagram>
</mxfile>
